<?xml version="1.0" encoding="UTF-8"?>
<svg id="Layer_2" data-name="Layer 2" xmlns="http://www.w3.org/2000/svg" viewBox="0 0 355.26 237.54" fill="#1f1f1f">
  <g id="Layer_2_copy" data-name="Layer 2 copy">
    <g>
      <path class="cls-1" d="M248.82,77.48l-71.2,89L77.63,41.48h256.85c6.3,0,12.26-2.86,16.19-7.78h0C361.54,20.11,351.87,0,334.48,0H20.78C3.39,0-6.28,20.11,4.58,33.69l156.85,196.06c8.3,10.38,24.09,10.38,32.39,0l116.23-145.28c4.19-5.24.46-13-6.25-13h-42.48c-4.86,0-9.46,2.21-12.49,6Z"/>
      <path class="cls-1" d="M248.82,77.48l-71.2,89L77.63,41.48h256.85c6.3,0,12.26-2.86,16.19-7.78h0C361.54,20.11,351.87,0,334.48,0H20.78C3.39,0-6.28,20.11,4.58,33.69l156.85,196.06c8.3,10.38,24.09,10.38,32.39,0l116.23-145.28c4.19-5.24.46-13-6.25-13h-42.48c-4.86,0-9.46,2.21-12.49,6Z"/>
    </g>
    <g>
      <path class="cls-1" d="M183.88,117.51l33.36-41.69c4.19-5.24.46-13-6.25-13h-66.71c-6.71,0-10.44,7.76-6.25,13l33.36,41.69c3.2,4,9.29,4,12.49,0Z"/>
      <path class="cls-1" d="M183.88,117.51l33.36-41.69c4.19-5.24.46-13-6.25-13h-66.71c-6.71,0-10.44,7.76-6.25,13l33.36,41.69c3.2,4,9.29,4,12.49,0Z"/>
    </g>
  </g>
</svg>