<?xml version="1.0" encoding="UTF-8"?>
<svg id="Layer_2" data-name="Layer 2" xmlns="http://www.w3.org/2000/svg" viewBox="0 0 361.81 279.83" fill="#1f1f1f">
  <defs>
  </defs>
  <g id="Layer_1-2" data-name="Layer 1">
    <path class="cls-1" d="M256.81,82.37l-76.92,115.38c-.79,1.19-2.54,1.19-3.33,0L80.3,53.35c-.89-1.33.07-3.11,1.66-3.11h254.73c13.87,0,25.12-11.25,25.12-25.12h0c0-13.87-11.25-25.12-25.12-25.12H25.16C5.1,0-6.87,22.36,4.26,39.05l153.06,229.59c9.94,14.91,31.86,14.91,41.8,0l124.79-187.19c1.77-2.66-.13-6.22-3.33-6.22h-50.47c-5.35,0-10.35,2.67-13.31,7.12Z"/>
    <path class="cls-1" d="M180.47,146.27l42.53-63.79c1.77-2.66-.13-6.22-3.33-6.22h-85.05c-3.19,0-5.1,3.56-3.33,6.22l42.53,63.79c1.58,2.37,5.07,2.37,6.66,0Z"/>
  </g>
</svg>