<svg width="192" height="192" viewBox="0 0 192 192" fill="none" xmlns="http://www.w3.org/2000/svg">
<g clip-path="url(#clip0_44_893)">
<circle cx="96" cy="96" r="96" fill="#D9D9D9"/>
<g clip-path="url(#clip1_44_893)">
<path d="M128.062 91.895L95.9954 131.978L50.9625 75.6815H166.641C169.479 75.6815 172.163 74.3935 173.933 72.1776C178.828 66.057 174.473 57 166.641 57H25.3587C17.5267 57 13.1716 66.057 18.0627 72.1731L88.7039 160.473C92.442 165.148 99.5534 165.148 103.291 160.473L155.638 95.0431C157.526 92.6832 155.846 89.1883 152.824 89.1883H133.692C131.503 89.1883 129.431 90.1836 128.067 91.8905L128.062 91.895Z" fill="black"/>
<path d="M98.8149 109.923L113.839 91.1473C115.726 88.7874 114.047 85.2925 111.025 85.2925H80.9801C77.958 85.2925 76.2781 88.7874 78.1652 91.1473L93.1897 109.923C94.6309 111.725 97.3737 111.725 98.8149 109.923Z" fill="black"/>
</g>
</g>
<defs>
<clipPath id="clip0_44_893">
<rect width="192" height="192" fill="white"/>
</clipPath>
<clipPath id="clip1_44_893">
<rect width="160" height="106.982" fill="white" transform="translate(16 57)"/>
</clipPath>
</defs>
</svg>
